<?xml version="1.0" encoding="UTF-8"?>
<!DOCTYPE svg PUBLIC "-//W3C//DTD SVG 1.1//EN" "http://www.w3.org/Graphics/SVG/1.1/DTD/svg11.dtd">
<svg xmlns="http://www.w3.org/2000/svg" version="1.1" width="31.88" height="32" style="shape-rendering:geometricPrecision; text-rendering:geometricPrecision; image-rendering:optimizeQuality; fill-rule:evenodd; clip-rule:evenodd" xmlns:xlink="http://www.w3.org/1999/xlink">
<g><path style="opacity:0.009" fill="#fefffe" d="M 85.5,-0.5 C 86.5,-0.5 87.5,-0.5 88.5,-0.5C 88.5,-0.166667 88.5,0.166667 88.5,0.5C 87.209,0.737305 86.209,0.403972 85.5,-0.5 Z"/></g>
<g><path style="opacity:0.907" fill="#fcfcfc" d="M 93.5,-0.5 C 104.833,-0.5 116.167,-0.5 127.5,-0.5C 128.919,0.451145 130.585,0.784479 132.5,0.5C 134.515,1.92381 136.848,2.59047 139.5,2.5C 141.509,4.06518 143.843,5.06518 146.5,5.5C 154.631,9.39889 162.297,14.0656 169.5,19.5C 171.46,21.1563 173.46,22.823 175.5,24.5C 180.833,29.1667 185.833,34.1667 190.5,39.5C 192.782,43.7771 195.449,47.7771 198.5,51.5C 198.328,52.4916 198.662,53.1583 199.5,53.5C 199.66,55.153 200.326,56.4863 201.5,57.5C 201.328,58.4916 201.662,59.1583 202.5,59.5C 204.326,64.4844 206.659,69.1511 209.5,73.5C 209.263,74.791 209.596,75.791 210.5,76.5C 210.402,78.5529 211.069,80.2196 212.5,81.5C 213.057,86.0516 214.057,90.3849 215.5,94.5C 215.5,104.5 215.5,114.5 215.5,124.5C 214.833,119.833 214.167,115.167 213.5,110.5C 213.868,120.322 212.868,129.988 210.5,139.5C 209.262,141.214 208.595,143.214 208.5,145.5C 207.596,146.209 207.263,147.209 207.5,148.5C 206.662,148.842 206.328,149.508 206.5,150.5C 205.662,150.842 205.328,151.508 205.5,152.5C 204.662,152.842 204.328,153.508 204.5,154.5C 203.662,154.842 203.328,155.508 203.5,156.5C 202.662,156.842 202.328,157.508 202.5,158.5C 201.662,158.842 201.328,159.508 201.5,160.5C 200.833,160.5 200.5,160.833 200.5,161.5C 199.662,161.842 199.328,162.508 199.5,163.5C 198.833,163.5 198.5,163.833 198.5,164.5C 197.662,164.842 197.328,165.508 197.5,166.5C 196.833,166.5 196.5,166.833 196.5,167.5C 195.662,167.842 195.328,168.508 195.5,169.5C 194.833,169.5 194.5,169.833 194.5,170.5C 193.833,170.5 193.5,170.833 193.5,171.5C 191.11,172.891 189.443,174.891 188.5,177.5C 187.833,177.5 187.5,177.833 187.5,178.5C 186.833,178.5 186.5,178.833 186.5,179.5C 185.833,179.5 185.5,179.833 185.5,180.5C 184.833,180.5 184.5,180.833 184.5,181.5C 183.833,181.5 183.5,181.833 183.5,182.5C 181.246,183.124 179.579,184.457 178.5,186.5C 176.246,187.124 174.579,188.457 173.5,190.5C 172.508,190.328 171.842,190.662 171.5,191.5C 170.833,191.5 170.5,191.833 170.5,192.5C 168.973,192.427 167.973,193.094 167.5,194.5C 166.508,194.328 165.842,194.662 165.5,195.5C 163.973,195.427 162.973,196.094 162.5,197.5C 161.508,197.328 160.842,197.662 160.5,198.5C 159.508,198.328 158.842,198.662 158.5,199.5C 157.508,199.328 156.842,199.662 156.5,200.5C 155.508,200.328 154.842,200.662 154.5,201.5C 152.447,201.402 150.78,202.069 149.5,203.5C 148.209,203.263 147.209,203.596 146.5,204.5C 145.209,204.263 144.209,204.596 143.5,205.5C 138.948,206.057 134.615,207.057 130.5,208.5C 117.833,208.5 105.167,208.5 92.5,208.5C 88.0152,207.216 83.3485,206.216 78.5,205.5C 77.791,204.596 76.791,204.263 75.5,204.5C 74.9094,203.849 74.2427,203.182 73.5,202.5C 74,202.167 74.5,201.833 75,201.5C 76.7892,202.409 78.6226,202.576 80.5,202C 78.1457,201.153 75.8123,200.32 73.5,199.5C 71.5739,197.707 69.2406,196.707 66.5,196.5C 65.791,195.596 64.791,195.263 63.5,195.5C 59.5919,193.546 55.5919,191.546 51.5,189.5C 50.3044,189.846 50.3044,190.346 51.5,191C 54.1732,192.001 56.5065,193.501 58.5,195.5C 58.0431,196.298 57.3764,196.631 56.5,196.5C 55.4863,195.326 54.153,194.66 52.5,194.5C 50.8525,192.674 48.8525,191.34 46.5,190.5C 42.1667,186.833 38.1667,182.833 34.5,178.5C 25.9996,171.145 18.6662,162.812 12.5,153.5C 10.5492,149.267 8.88255,144.934 7.5,140.5C 9.0919,139.398 9.92524,140.065 10,142.5C 10.5881,139.861 10.0881,137.527 8.5,135.5C 8.76781,133.901 8.43448,132.568 7.5,131.5C 7.78448,129.585 7.45115,127.919 6.5,126.5C 4.98447,113.781 5.31781,101.115 7.5,88.5C 9.2035,84.3825 10.5368,80.0492 11.5,75.5C 14.6281,70.233 16.9615,64.5663 18.5,58.5C 23.9704,48.3549 30.637,39.0216 38.5,30.5C 40.2624,29.7377 41.2624,28.4044 41.5,26.5C 42.5,26.1667 43.1667,25.5 43.5,24.5C 45.5398,22.823 47.5398,21.1563 49.5,19.5C 46.6689,20.0787 44.3356,21.412 42.5,23.5C 41.8333,23.5 41.5,23.8333 41.5,24.5C 39.9731,24.427 38.9731,25.0937 38.5,26.5C 37.8333,26.5 37.5,26.8333 37.5,27.5C 36.8333,27.5 36.5,27.8333 36.5,28.5C 34.9731,28.427 33.9731,29.0937 33.5,30.5C 32.8333,30.5 32.5,30.8333 32.5,31.5C 31.8333,31.5 31.5,31.8333 31.5,32.5C 30.8333,32.5 30.5,32.8333 30.5,33.5C 29.8333,33.5 29.5,33.8333 29.5,34.5C 28.8333,34.5 28.5,34.8333 28.5,35.5C 27.8333,35.5 27.5,35.8333 27.5,36.5C 26.8333,36.5 26.5,36.8333 26.5,37.5C 25.8333,37.5 25.5,37.8333 25.5,38.5C 24.8333,38.5 24.5,38.8333 24.5,39.5C 23.0937,39.9731 22.427,40.9731 22.5,42.5C 21.8333,42.5 21.5,42.8333 21.5,43.5C 20.8333,43.5 20.5,43.8333 20.5,44.5C 19.0937,44.9731 18.427,45.9731 18.5,47.5C 17.8333,47.5 17.5,47.8333 17.5,48.5C 16.6618,48.8417 16.3284,49.5084 16.5,50.5C 15.0937,50.9731 14.427,51.9731 14.5,53.5C 13.6618,53.8417 13.3284,54.5084 13.5,55.5C 12.6618,55.8417 12.3284,56.5084 12.5,57.5C 11.6618,57.8417 11.3284,58.5084 11.5,59.5C 10.6618,59.8417 10.3284,60.5084 10.5,61.5C 9.66175,61.8417 9.32842,62.5084 9.5,63.5C 8.84851,64.0906 8.18185,64.7573 7.5,65.5C 6.70245,65.0431 6.36912,64.3764 6.5,63.5C 8.29268,61.5739 9.29268,59.2406 9.5,56.5C 11.664,54.178 13.3307,51.5113 14.5,48.5C 26.9876,30.6802 43.3209,17.6802 63.5,9.5C 68.8954,8.2958 73.8954,6.2958 78.5,3.5C 79.791,3.73731 80.791,3.40397 81.5,2.5C 84.1522,2.59047 86.4855,1.92381 88.5,0.5C 90.4147,0.784479 92.0813,0.451145 93.5,-0.5 Z M 119.5,4.5 C 118.508,4.32842 117.842,4.66175 117.5,5.5C 114.492,5.29905 111.492,4.96572 108.5,4.5C 107.167,4.83333 105.833,5.16667 104.5,5.5C 106.291,6.16985 107.958,6.83652 109.5,7.5C 111.735,7.20528 113.735,7.53862 115.5,8.5C 113.011,8.29777 110.677,8.79777 108.5,10C 112.689,10.8119 116.689,10.6453 120.5,9.5C 123.947,9.81425 127.28,10.6476 130.5,12C 117.544,11.5781 104.544,11.4114 91.5,11.5C 90.0813,12.4511 88.4147,12.7845 86.5,12.5C 85.4324,13.4345 84.099,13.7678 82.5,13.5C 80.4855,14.9238 78.1522,15.5905 75.5,15.5C 74.791,16.404 73.791,16.7373 72.5,16.5C 71.791,17.404 70.791,17.7373 69.5,17.5C 68.2789,16.5354 66.9456,16.702 65.5,18C 66.0944,18.4643 66.7611,18.631 67.5,18.5C 66.2196,19.9313 64.5529,20.5979 62.5,20.5C 62.1583,21.3382 61.4916,21.6716 60.5,21.5C 59.7095,20.5987 58.7095,19.9321 57.5,19.5C 57.9731,18.0937 58.9731,17.427 60.5,17.5C 60.56,18.0431 60.8933,18.3764 61.5,18.5C 65.1667,16.6667 68.8333,14.8333 72.5,13C 71.9056,12.5357 71.2389,12.369 70.5,12.5C 71.209,11.596 72.209,11.2627 73.5,11.5C 75.1016,9.92606 77.1016,9.25939 79.5,9.5C 81.5625,8.22367 83.8958,7.39034 86.5,7C 91.5,6.66667 96.5,6.33333 101.5,6C 95.1635,5.16322 95.4968,4.49656 102.5,4C 108.349,3.18163 114.015,3.3483 119.5,4.5 Z M 119.5,4.5 C 122.059,4.19845 124.393,4.53178 126.5,5.5C 124.585,5.21552 122.919,5.54885 121.5,6.5C 119.901,6.76781 118.568,6.43448 117.5,5.5C 118.492,5.67158 119.158,5.33825 119.5,4.5 Z M 131.5,6.5 C 134.495,6.29379 137.162,6.96046 139.5,8.5C 140.791,8.26269 141.791,8.59603 142.5,9.5C 143.791,9.26269 144.791,9.59603 145.5,10.5C 142.903,10.7208 142.903,11.2208 145.5,12C 146.872,12.4017 148.205,12.9017 149.5,13.5C 150.107,13.3764 150.44,13.0431 150.5,12.5C 151.791,12.2627 152.791,12.596 153.5,13.5C 152.761,13.369 152.094,13.5357 151.5,14C 155.946,16.5853 160.279,18.4187 164.5,19.5C 165.492,19.3284 166.158,19.6618 166.5,20.5C 165.453,21.0778 165.62,21.7445 167,22.5C 167.399,22.2716 167.565,21.9382 167.5,21.5C 168.492,21.3284 169.158,21.6618 169.5,22.5C 168.262,22.81 168.262,23.31 169.5,24C 168.231,23.8915 167.231,24.0582 166.5,24.5C 165.508,24.6716 164.842,24.3382 164.5,23.5C 165.738,23.19 165.738,22.69 164.5,22C 161.5,20.5 158.5,19 155.5,17.5C 154.893,17.6236 154.56,17.9569 154.5,18.5C 152.447,18.5979 150.78,17.9313 149.5,16.5C 152.097,16.2792 152.097,15.7792 149.5,15C 148,14.5 146.5,14 145,13.5C 144.235,13.5699 143.735,13.9033 143.5,14.5C 141.102,14.7406 139.102,14.0739 137.5,12.5C 138.239,12.631 138.906,12.4643 139.5,12C 137.833,11.1667 136.167,10.3333 134.5,9.5C 133.893,9.62358 133.56,9.95691 133.5,10.5C 132.209,10.7373 131.209,10.404 130.5,9.5C 133.167,9.16667 133.167,8.83333 130.5,8.5C 130.833,7.83333 131.167,7.16667 131.5,6.5 Z M 125.5,7.5 C 127.216,7.62867 128.883,7.962 130.5,8.5C 130.5,8.83333 130.5,9.16667 130.5,9.5C 128.447,9.59794 126.78,8.93127 125.5,7.5 Z M 49.5,19.5 C 47.5398,21.1563 45.5398,22.823 43.5,24.5C 43.5,23.8333 43.1667,23.5 42.5,23.5C 44.3356,21.412 46.6689,20.0787 49.5,19.5 Z M 55.5,22.5 C 56.3478,21.375 57.3478,21.375 58.5,22.5C 58.1583,23.3382 57.4916,23.6716 56.5,23.5C 56.5,22.8333 56.1667,22.5 55.5,22.5 Z M 54.5,22.5 C 54.8333,22.5 55.1667,22.5 55.5,22.5C 56.1667,22.5 56.5,22.8333 56.5,23.5C 56.1583,24.3382 55.4916,24.6716 54.5,24.5C 54.5,23.8333 54.5,23.1667 54.5,22.5 Z M 161.5,25.5 C 160.833,25.5 160.5,25.8333 160.5,26.5C 154.066,21.8782 154.399,21.5449 161.5,25.5 Z M 41.5,24.5 C 41.1667,25.1667 40.8333,25.8333 40.5,26.5C 39.8333,26.5 39.1667,26.5 38.5,26.5C 38.9731,25.0937 39.9731,24.427 41.5,24.5 Z M 171.5,25.5 C 171.5,25.1667 171.5,24.8333 171.5,24.5C 173.404,24.7376 174.738,25.7376 175.5,27.5C 174.833,27.8333 174.167,28.1667 173.5,28.5C 173.573,26.9731 172.906,25.9731 171.5,25.5 Z M 49.5,25.5 C 49.5,25.8333 49.5,26.1667 49.5,26.5C 48.8333,26.5 48.5,26.8333 48.5,27.5C 47.8333,27.5 47.1667,27.5 46.5,27.5C 46.9731,26.0937 47.9731,25.427 49.5,25.5 Z M 161.5,25.5 C 162.492,25.3284 163.158,25.6618 163.5,26.5C 162.833,26.5 162.5,26.8333 162.5,27.5C 161.508,27.6716 160.842,27.3382 160.5,26.5C 161.167,26.5 161.5,26.1667 161.5,25.5 Z M 40.5,26.5 C 40.8333,26.5 41.1667,26.5 41.5,26.5C 41.2624,28.4044 40.2624,29.7377 38.5,30.5C 38.7329,28.9382 39.3995,27.6049 40.5,26.5 Z M 49.5,26.5 C 50.1667,26.5 50.8333,26.5 51.5,26.5C 51.0269,27.9063 50.0269,28.573 48.5,28.5C 48.5,28.1667 48.5,27.8333 48.5,27.5C 49.1667,27.5 49.5,27.1667 49.5,26.5 Z M 36.5,28.5 C 36.5,28.8333 36.5,29.1667 36.5,29.5C 35.609,30.1098 34.609,30.4431 33.5,30.5C 33.9731,29.0937 34.9731,28.427 36.5,28.5 Z M 48.5,28.5 C 48.0269,29.9063 47.0269,30.573 45.5,30.5C 45.5,30.1667 45.5,29.8333 45.5,29.5C 46.391,28.8902 47.391,28.5569 48.5,28.5 Z M 52.5,29.5 C 52.0269,30.9063 51.0269,31.573 49.5,31.5C 49.9731,30.0937 50.9731,29.427 52.5,29.5 Z M 168.5,29.5 C 169.492,29.3284 170.158,29.6618 170.5,30.5C 172.027,30.427 173.027,31.0937 173.5,32.5C 172.453,33.0778 172.62,33.7445 174,34.5C 174.399,34.2716 174.565,33.9382 174.5,33.5C 175.492,33.3284 176.158,33.6618 176.5,34.5C 176.062,34.4346 175.728,34.6012 175.5,35C 176.333,35.8333 177.167,36.6667 178,37.5C 178.399,37.2716 178.565,36.9382 178.5,36.5C 180.404,36.7376 181.738,37.7376 182.5,39.5C 182.062,39.4346 181.728,39.6012 181.5,40C 184.067,42.3959 186.4,44.8959 188.5,47.5C 188.5,48.1667 188.833,48.5 189.5,48.5C 190.504,49.6828 191.338,51.0161 192,52.5C 192.69,53.7383 193.19,53.7383 193.5,52.5C 195.873,54.5792 197.206,57.2459 197.5,60.5C 196.535,61.7211 196.702,63.0544 198,64.5C 198.464,63.9056 198.631,63.2389 198.5,62.5C 199.931,63.7804 200.598,65.4471 200.5,67.5C 199.903,67.7352 199.57,68.2352 199.5,69C 200,70.5 200.5,72 201,73.5C 201.483,72.552 201.649,71.552 201.5,70.5C 205.271,79.8965 206.605,89.5631 205.5,99.5C 205.167,87.5 204.833,87.5 204.5,99.5C 203.833,99.5 203.167,99.5 202.5,99.5C 202.167,92.8333 201.833,92.8333 201.5,99.5C 200.313,96.0542 199.646,92.3875 199.5,88.5C 197.742,85.1456 196.742,81.479 196.5,77.5C 195.596,76.791 195.263,75.791 195.5,74.5C 194.596,73.791 194.263,72.791 194.5,71.5C 195.465,70.2789 195.298,68.9456 194,67.5C 193.536,68.0944 193.369,68.7611 193.5,69.5C 192.596,68.791 192.263,67.791 192.5,66.5C 193.043,66.44 193.376,66.1067 193.5,65.5C 192.667,63.8333 191.833,62.1667 191,60.5C 190.31,59.2617 189.81,59.2617 189.5,60.5C 188.662,60.1583 188.328,59.4916 188.5,58.5C 188.938,58.5654 189.272,58.3988 189.5,58C 188.874,57.2496 188.374,56.4162 188,55.5C 187.31,54.2617 186.81,54.2617 186.5,55.5C 185.662,55.1583 185.328,54.4916 185.5,53.5C 186.547,52.9222 186.38,52.2555 185,51.5C 184.601,51.7284 184.435,52.0618 184.5,52.5C 183.094,52.0269 182.427,51.0269 182.5,49.5C 182.938,49.5654 183.272,49.3988 183.5,49C 182.934,48.0053 182.267,47.172 181.5,46.5C 181.5,45.8333 181.167,45.5 180.5,45.5C 178.804,43.4752 177.137,41.4752 175.5,39.5C 175.5,38.8333 175.167,38.5 174.5,38.5C 172.372,35.8697 170.039,33.3697 167.5,31C 168.056,30.6174 168.389,30.1174 168.5,29.5 Z M 42.5,31.5 C 43.1667,31.5 43.8333,31.5 44.5,31.5C 44.0269,32.9063 43.0269,33.573 41.5,33.5C 41.8333,32.8333 42.1667,32.1667 42.5,31.5 Z M 49.5,31.5 C 48.1667,33.5 46.5,35.1667 44.5,36.5C 44.5,35.8333 44.1667,35.5 43.5,35.5C 45.2228,33.7819 47.2228,32.4486 49.5,31.5 Z M 179.5,31.5 C 181.984,33.8003 183.984,36.4669 185.5,39.5C 182.808,37.1377 180.141,34.8044 177.5,32.5C 178.492,32.6716 179.158,32.3382 179.5,31.5 Z M 38.5,34.5 C 38.5,35.1667 38.8333,35.5 39.5,35.5C 38.1667,37.5 36.5,39.1667 34.5,40.5C 35.4486,38.2228 36.7819,36.2228 38.5,34.5 Z M 41.5,37.5 C 41.5,38.1667 41.8333,38.5 42.5,38.5C 41.8333,39.8333 40.8333,40.8333 39.5,41.5C 39.1667,40.1667 38.8333,40.1667 38.5,41.5C 37.8333,41.5 37.1667,41.5 36.5,41.5C 37.5794,39.457 39.246,38.1237 41.5,37.5 Z M 173.5,38.5 C 173.833,38.5 174.167,38.5 174.5,38.5C 175.167,38.5 175.5,38.8333 175.5,39.5C 175.5,40.1667 175.5,40.8333 175.5,41.5C 174.094,41.0269 173.427,40.0269 173.5,38.5 Z M 24.5,39.5 C 24.573,41.0269 23.9063,42.0269 22.5,42.5C 22.427,40.9731 23.0937,39.9731 24.5,39.5 Z M 34.5,41.5 C 35.1667,41.5 35.8333,41.5 36.5,41.5C 36.5,42.1667 36.5,42.8333 36.5,43.5C 35.1667,44.1667 34.1667,45.1667 33.5,46.5C 32.8333,46.8333 32.1667,47.1667 31.5,47.5C 31.5,46.8333 31.5,46.1667 31.5,45.5C 33.2624,44.7377 34.2624,43.4044 34.5,41.5 Z M 179.5,45.5 C 179.833,45.5 180.167,45.5 180.5,45.5C 181.167,45.5 181.5,45.8333 181.5,46.5C 181.5,47.1667 181.5,47.8333 181.5,48.5C 180.094,48.0269 179.427,47.0269 179.5,45.5 Z M 188.5,45.5 C 189.906,45.9731 190.573,46.9731 190.5,48.5C 190.167,48.5 189.833,48.5 189.5,48.5C 188.833,48.5 188.5,48.1667 188.5,47.5C 188.5,46.8333 188.5,46.1667 188.5,45.5 Z M 30.5,48.5 C 30.5,49.1667 30.5,49.8333 30.5,50.5C 29.8333,50.8333 29.1667,51.1667 28.5,51.5C 28.427,49.9731 29.0937,48.9731 30.5,48.5 Z M 27.5,52.5 C 27.573,54.0269 26.9063,55.0269 25.5,55.5C 25.427,53.9731 26.0937,52.9731 27.5,52.5 Z M 28.5,55.5 C 28.573,57.0269 27.9063,58.0269 26.5,58.5C 26.427,56.9731 27.0937,55.9731 28.5,55.5 Z M 22.5,60.5 C 22.5979,62.5529 21.9313,64.2196 20.5,65.5C 20.4021,63.4471 21.0687,61.7804 22.5,60.5 Z M 22.5,66.5 C 22.5979,68.5529 21.9313,70.2196 20.5,71.5C 20.5,70.5 20.5,69.5 20.5,68.5C 21.1667,67.8333 21.8333,67.1667 22.5,66.5 Z M 17.5,73.5 C 17.5,74.8333 17.5,76.1667 17.5,77.5C 16.1667,78.5 16.1667,79.5 17.5,80.5C 17.3256,83.8738 16.8256,87.2072 16,90.5C 15.6667,89.1667 15.3333,87.8333 15,86.5C 14.8333,87.3333 14.6667,88.1667 14.5,89C 15.5774,96.1407 15.7441,103.307 15,110.5C 14.7508,103.422 13.9174,96.4218 12.5,89.5C 12.02,92.627 11.02,95.4604 9.5,98C 10.542,107.833 11.8753,117.666 13.5,127.5C 12.7385,130.152 13.2385,132.818 15,135.5C 15.4643,134.906 15.631,134.239 15.5,133.5C 16.404,134.209 16.7373,135.209 16.5,136.5C 15.9569,136.56 15.6236,136.893 15.5,137.5C 16.3333,139.167 17.1667,140.833 18,142.5C 18.4643,141.906 18.631,141.239 18.5,140.5C 19.404,141.209 19.7373,142.209 19.5,143.5C 21.2503,144.659 22.2503,146.326 22.5,148.5C 21.2875,149.497 21.4542,150.497 23,151.5C 23.3988,151.272 23.5654,150.938 23.5,150.5C 24.3382,150.842 24.6716,151.508 24.5,152.5C 24.0618,152.435 23.7284,152.601 23.5,153C 28.9513,160.786 34.7846,168.286 41,175.5C 40.6446,176.959 40.8112,178.293 41.5,179.5C 39.9731,179.573 38.9731,178.906 38.5,177.5C 39.4387,176.673 39.1054,176.006 37.5,175.5C 37.5,174.833 37.1667,174.5 36.5,174.5C 32.5,171.167 28.8333,167.5 25.5,163.5C 25.5,162.833 25.1667,162.5 24.5,162.5C 22.3971,159.28 20.0638,156.28 17.5,153.5C 17.5,152.833 17.5,152.167 17.5,151.5C 16.0687,150.22 15.4021,148.553 15.5,146.5C 16.4646,145.279 16.298,143.946 15,142.5C 14.5357,143.094 14.369,143.761 14.5,144.5C 13.596,143.791 13.2627,142.791 13.5,141.5C 12.596,140.791 12.2627,139.791 12.5,138.5C 11.5655,137.432 11.2322,136.099 11.5,134.5C 10.144,131.423 9.31063,128.09 9,124.5C 8.33333,114.833 8.33333,105.167 9,95.5C 9.40612,92.2578 10.2395,89.2578 11.5,86.5C 11.2322,84.901 11.5655,83.5676 12.5,82.5C 12.4021,80.4471 13.0687,78.7804 14.5,77.5C 15.6588,76.2597 16.6588,74.9264 17.5,73.5 Z M 213.5,110.5 C 211.507,118.693 209.507,127.027 207.5,135.5C 207.657,134.127 207.49,132.793 207,131.5C 206.578,133.355 206.078,135.189 205.5,137C 205.57,137.765 205.903,138.265 206.5,138.5C 206.737,139.791 206.404,140.791 205.5,141.5C 205.737,142.791 205.404,143.791 204.5,144.5C 204.737,145.791 204.404,146.791 203.5,147.5C 203.631,146.761 203.464,146.094 203,145.5C 202.167,147.167 201.333,148.833 200.5,150.5C 200.624,151.107 200.957,151.44 201.5,151.5C 201.672,152.492 201.338,153.158 200.5,153.5C 200.771,155.38 200.104,156.713 198.5,157.5C 198.672,158.492 198.338,159.158 197.5,159.5C 197.19,158.262 196.69,158.262 196,159.5C 195.626,160.416 195.126,161.25 194.5,162C 194.728,162.399 195.062,162.565 195.5,162.5C 195.672,163.492 195.338,164.158 194.5,164.5C 193.671,163.668 192.838,164.001 192,165.5C 191.626,166.416 191.126,167.25 190.5,168C 190.728,168.399 191.062,168.565 191.5,168.5C 191.573,170.027 190.906,171.027 189.5,171.5C 188.242,170.984 187.242,171.65 186.5,173.5C 185.833,173.5 185.5,173.833 185.5,174.5C 184.833,174.5 184.5,174.833 184.5,175.5C 183.833,175.5 183.5,175.833 183.5,176.5C 182.167,177.167 181.167,178.167 180.5,179.5C 179.833,179.5 179.5,179.833 179.5,180.5C 178.833,180.5 178.5,180.833 178.5,181.5C 176.809,182.864 175.142,184.197 173.5,185.5C 172.833,185.5 172.5,185.833 172.5,186.5C 170.062,188.267 167.395,189.601 164.5,190.5C 165.861,188.473 167.527,186.806 169.5,185.5C 170.167,185.5 170.5,185.167 170.5,184.5C 171.167,184.5 171.5,184.167 171.5,183.5C 172.167,183.5 172.5,183.167 172.5,182.5C 173.833,181.833 174.833,180.833 175.5,179.5C 176.167,179.5 176.5,179.167 176.5,178.5C 177.167,178.5 177.5,178.167 177.5,177.5C 178.167,177.5 178.5,177.167 178.5,176.5C 185.635,168.924 191.302,160.258 195.5,150.5C 195.376,149.893 195.043,149.56 194.5,149.5C 194.263,148.209 194.596,147.209 195.5,146.5C 195.369,147.239 195.536,147.906 196,148.5C 197.298,147.054 197.465,145.721 196.5,144.5C 196.263,143.209 196.596,142.209 197.5,141.5C 197.369,142.239 197.536,142.906 198,143.5C 199,141.5 200,139.5 201,137.5C 201.74,136.251 201.573,135.251 200.5,134.5C 200.928,131.215 201.928,128.215 203.5,125.5C 204.93,117.571 205.597,109.571 205.5,101.5C 207.843,100.456 209.51,98.7897 210.5,96.5C 210.611,95.8826 210.944,95.3826 211.5,95C 209.787,91.3402 209.287,87.5068 210,83.5C 212.473,92.3356 213.639,101.336 213.5,110.5 Z M 23.5,162.5 C 23.8333,162.5 24.1667,162.5 24.5,162.5C 25.1667,162.5 25.5,162.833 25.5,163.5C 25.5,164.167 25.5,164.833 25.5,165.5C 24.0937,165.027 23.427,164.027 23.5,162.5 Z M 182.5,163.5 C 181.551,165.777 180.218,167.777 178.5,169.5C 178.5,168.833 178.167,168.5 177.5,168.5C 178.833,166.5 180.5,164.833 182.5,163.5 Z M 175.5,172.5 C 173.5,176.5 170.5,179.5 166.5,181.5C 166.5,181.167 166.5,180.833 166.5,180.5C 168.167,179.5 169.5,178.167 170.5,176.5C 171.167,176.5 171.5,176.167 171.5,175.5C 172.833,174.5 174.167,173.5 175.5,172.5 Z M 186.5,173.5 C 186.833,173.5 187.167,173.5 187.5,173.5C 186.92,175.749 185.587,177.415 183.5,178.5C 183.5,177.833 183.5,177.167 183.5,176.5C 184.167,176.5 184.5,176.167 184.5,175.5C 185.167,175.5 185.5,175.167 185.5,174.5C 186.167,174.5 186.5,174.167 186.5,173.5 Z M 34.5,174.5 C 35.1667,174.5 35.8333,174.5 36.5,174.5C 37.1667,174.5 37.5,174.833 37.5,175.5C 37.5,175.833 37.5,176.167 37.5,176.5C 35.9731,176.573 34.9731,175.906 34.5,174.5 Z M 171.5,174.5 C 171.5,174.833 171.5,175.167 171.5,175.5C 170.833,175.5 170.5,175.833 170.5,176.5C 169.833,176.5 169.167,176.5 168.5,176.5C 168.973,175.094 169.973,174.427 171.5,174.5 Z M 178.5,174.5 C 178.5,175.167 178.5,175.833 178.5,176.5C 177.833,176.5 177.5,176.833 177.5,177.5C 176.833,177.5 176.5,177.833 176.5,178.5C 175.833,178.5 175.5,178.833 175.5,179.5C 175.167,179.5 174.833,179.5 174.5,179.5C 175.08,177.251 176.413,175.585 178.5,174.5 Z M 42.5,175.5 C 45.5,177.833 48.1667,180.5 50.5,183.5C 49.8333,183.5 49.5,183.833 49.5,184.5C 48.5084,184.672 47.8417,184.338 47.5,183.5C 48.8333,183.167 48.8333,182.833 47.5,182.5C 47.5,181.833 47.1667,181.5 46.5,181.5C 45.8333,180.167 44.8333,179.167 43.5,178.5C 42.8902,177.609 42.5569,176.609 42.5,175.5 Z M 167.5,177.5 C 166.89,178.391 166.557,179.391 166.5,180.5C 165.833,180.167 165.167,179.833 164.5,179.5C 164.973,178.094 165.973,177.427 167.5,177.5 Z M 180.5,179.5 C 181.167,179.5 181.833,179.5 182.5,179.5C 181.738,181.262 180.404,182.262 178.5,182.5C 178.5,182.167 178.5,181.833 178.5,181.5C 179.167,181.5 179.5,181.167 179.5,180.5C 180.167,180.5 180.5,180.167 180.5,179.5 Z M 44.5,181.5 C 45.1667,181.5 45.8333,181.5 46.5,181.5C 47.1667,181.5 47.5,181.833 47.5,182.5C 47.5,182.833 47.5,183.167 47.5,183.5C 45.9731,183.573 44.9731,182.906 44.5,181.5 Z M 172.5,181.5 C 172.5,181.833 172.5,182.167 172.5,182.5C 171.833,182.5 171.5,182.833 171.5,183.5C 170.833,183.5 170.5,183.833 170.5,184.5C 169.833,184.5 169.5,184.833 169.5,185.5C 168.833,185.5 168.167,185.5 167.5,185.5C 168.585,183.413 170.251,182.08 172.5,181.5 Z M 158.5,183.5 C 159.167,184.167 159.833,184.833 160.5,185.5C 158.388,186.44 156.388,187.606 154.5,189C 153.262,189.69 153.262,190.19 154.5,190.5C 154.027,191.906 153.027,192.573 151.5,192.5C 151.44,191.957 151.107,191.624 150.5,191.5C 146.833,193.333 143.167,195.167 139.5,197C 140.094,197.464 140.761,197.631 141.5,197.5C 140.791,198.404 139.791,198.737 138.5,198.5C 134.915,200.806 130.915,202.139 126.5,202.5C 123.124,204.082 119.458,204.749 115.5,204.5C 108.053,205.629 100.72,204.962 93.5,202.5C 90.9327,202.279 88.5994,201.612 86.5,200.5C 95.8575,200.65 105.191,200.317 114.5,199.5C 115.919,198.549 117.585,198.216 119.5,198.5C 122.219,197.087 125.219,196.42 128.5,196.5C 129.568,195.566 130.901,195.232 132.5,195.5C 133.209,194.596 134.209,194.263 135.5,194.5C 138.152,195.262 140.818,194.762 143.5,193C 142.906,192.536 142.239,192.369 141.5,192.5C 142.78,191.069 144.447,190.402 146.5,190.5C 146.842,189.662 147.508,189.328 148.5,189.5C 148.842,188.662 149.508,188.328 150.5,188.5C 150.435,188.938 150.601,189.272 151,189.5C 152.419,188.54 153.919,187.707 155.5,187C 156.738,186.31 156.738,185.81 155.5,185.5C 155.973,184.094 156.973,183.427 158.5,183.5 Z M 51.5,184.5 C 52.5,184.833 53.1667,185.5 53.5,186.5C 52.1667,186.5 51.5,185.833 51.5,184.5 Z M 57.5,184.5 C 59.7946,185.136 61.4613,186.469 62.5,188.5C 60.246,187.876 58.5794,186.543 57.5,184.5 Z M 163.5,184.5 C 163.027,185.906 162.027,186.573 160.5,186.5C 160.5,186.167 160.5,185.833 160.5,185.5C 161.391,184.89 162.391,184.557 163.5,184.5 Z M 173.5,185.5 C 174.167,185.5 174.833,185.5 175.5,185.5C 175.027,186.906 174.027,187.573 172.5,187.5C 172.5,187.167 172.5,186.833 172.5,186.5C 173.167,186.5 173.5,186.167 173.5,185.5 Z M 164.5,190.5 C 163.494,191.396 163.494,192.062 164.5,192.5C 162.421,194.873 159.754,196.206 156.5,196.5C 157.551,195.778 158.218,194.778 158.5,193.5C 159.925,195.031 160.591,194.698 160.5,192.5C 161.605,191.4 162.938,190.733 164.5,190.5 Z M 67.5,191.5 C 68.1667,191.5 68.8333,191.5 69.5,191.5C 69.8333,192.167 70.1667,192.833 70.5,193.5C 68.9731,193.573 67.9731,192.906 67.5,191.5 Z M 76.5,193.5 C 82.0521,195.137 87.7188,196.304 93.5,197C 86.8901,197.45 80.5568,196.617 74.5,194.5C 75.4916,194.672 76.1583,194.338 76.5,193.5 Z M 152.5,196.5 C 152.842,197.338 153.508,197.672 154.5,197.5C 153.22,198.931 151.553,199.598 149.5,199.5C 149.5,198.833 149.167,198.5 148.5,198.5C 148.842,197.662 149.508,197.328 150.5,197.5C 150.842,196.662 151.508,196.328 152.5,196.5 Z M 148.5,198.5 C 149.167,198.5 149.5,198.833 149.5,199.5C 146.495,201.277 143.162,202.277 139.5,202.5C 142.256,200.796 145.256,199.463 148.5,198.5 Z"/></g>
<g><path style="opacity:0.009" fill="#fefffe" d="M 132.5,0.5 C 132.5,0.166667 132.5,-0.166667 132.5,-0.5C 133.5,-0.5 134.5,-0.5 135.5,-0.5C 134.791,0.403972 133.791,0.737305 132.5,0.5 Z"/></g>
<g><path style="opacity:0.01" fill="#fefffe" d="M 82.5,1.5 C 82.8966,0.474981 83.5632,0.308314 84.5,1C 83.9056,1.46434 83.2389,1.63101 82.5,1.5 Z"/></g>
<g><path style="opacity:0.01" fill="#fefffe" d="M 136.5,1.5 C 136.897,0.474981 137.563,0.308314 138.5,1C 137.906,1.46434 137.239,1.63101 136.5,1.5 Z"/></g>
<g><path style="opacity:0.012" fill="#fefffe" d="M 81.5,2.5 C 80.7611,2.63101 80.0944,2.46434 79.5,2C 80.4368,1.30831 81.1034,1.47498 81.5,2.5 Z"/></g>
<g><path style="opacity:0.01" fill="#fefffe" d="M 139.5,2.5 C 139.897,1.47498 140.563,1.30831 141.5,2C 140.906,2.46434 140.239,2.63101 139.5,2.5 Z"/></g>
<g><path style="opacity:0.01" fill="#fefffe" d="M 78.5,3.5 C 77.7611,3.63101 77.0944,3.46434 76.5,3C 77.4368,2.30831 78.1034,2.47498 78.5,3.5 Z"/></g>
<g><path style="opacity:0.008" fill="#fefffe" d="M 142.5,3.5 C 142.897,2.47498 143.563,2.30831 144.5,3C 143.906,3.46434 143.239,3.63101 142.5,3.5 Z"/></g>
<g><path style="opacity:0.008" fill="#fefffe" d="M 73.5,4.5 C 73.8966,3.47498 74.5632,3.30831 75.5,4C 74.9056,4.46434 74.2389,4.63101 73.5,4.5 Z"/></g>
<g><path style="opacity:0.008" fill="#fefffe" d="M 146.5,5.5 C 146.897,4.47498 147.563,4.30831 148.5,5C 147.906,5.46434 147.239,5.63101 146.5,5.5 Z"/></g>
<g><path style="opacity:0.012" fill="#fefffe" d="M 121.5,6.5 C 122.919,5.54885 124.585,5.21552 126.5,5.5C 127.919,6.45115 129.585,6.78448 131.5,6.5C 131.167,7.16667 130.833,7.83333 130.5,8.5C 128.883,7.962 127.216,7.62867 125.5,7.5C 124.432,6.56552 123.099,6.23219 121.5,6.5 Z"/></g>
<g><path style="opacity:0.012" fill="#fefffe" d="M 149.5,5.5 C 150.833,6.16667 150.833,6.16667 149.5,5.5 Z"/></g>
<g><path style="opacity:0.01" fill="#fefffe" d="M 66.5,7.5 C 66.8966,6.47498 67.5632,6.30831 68.5,7C 67.9056,7.46434 67.2389,7.63101 66.5,7.5 Z"/></g>
<g><path style="opacity:0.012" fill="#fdfefd" d="M 151.5,6.5 C 152.833,7.16667 152.833,7.16667 151.5,6.5 Z"/></g>
<g><path style="opacity:0.008" fill="#fefefe" d="M 63.5,8.5 C 63.8966,7.47498 64.5632,7.30831 65.5,8C 64.9056,8.46434 64.2389,8.63101 63.5,8.5 Z"/></g>
<g><path style="opacity:0.012" fill="#fefffe" d="M 153.5,7.5 C 154.833,8.16667 154.833,8.16667 153.5,7.5 Z"/></g>
<g><path style="opacity:0.008" fill="#fefefe" d="M 63.5,8.5 C 63.5,8.83333 63.5,9.16667 63.5,9.5C 60.8333,9.16667 60.8333,8.83333 63.5,8.5 Z"/></g>
<g><path style="opacity:0.011" fill="#fefefe" d="M 115.5,8.5 C 116.919,9.45115 118.585,9.78448 120.5,9.5C 116.689,10.6453 112.689,10.8119 108.5,10C 110.677,8.79777 113.011,8.29777 115.5,8.5 Z"/></g>
<g><path style="opacity:0.012" fill="#fefffe" d="M 52.5,12.5 C 53.8333,13.1667 53.8333,13.1667 52.5,12.5 Z"/></g>
<g><path style="opacity:0.012" fill="#fefffe" d="M 169.5,18.5 C 170.833,19.1667 170.833,19.1667 169.5,18.5 Z"/></g>
<g><path style="opacity:0.004" fill="#fefffe" d="M 171.5,19.5 C 172.833,20.1667 172.833,20.1667 171.5,19.5 Z"/></g>
<g><path style="opacity:0.01" fill="#fefffe" d="M 53.5,22.5 C 53.8333,22.5 54.1667,22.5 54.5,22.5C 54.5,23.1667 54.5,23.8333 54.5,24.5C 53.8333,24.5 53.5,24.8333 53.5,25.5C 52.5084,25.3284 51.8417,25.6618 51.5,26.5C 50.8333,26.5 50.1667,26.5 49.5,26.5C 49.5,26.1667 49.5,25.8333 49.5,25.5C 50.1667,25.5 50.5,25.1667 50.5,24.5C 51.1667,24.5 51.5,24.1667 51.5,23.5C 52.4916,23.6716 53.1583,23.3382 53.5,22.5 Z"/></g>
<g><path style="opacity:0.008" fill="#fefffe" d="M 175.5,23.5 C 176.833,24.1667 176.833,24.1667 175.5,23.5 Z"/></g>
<g><path style="opacity:0.004" fill="#fefffe" d="M 178.5,25.5 C 177.833,24.1667 177.833,24.1667 178.5,25.5 Z"/></g>
<g><path style="opacity:0.005" fill="#fefffe" d="M 171.5,25.5 C 172.906,25.9731 173.573,26.9731 173.5,28.5C 173.167,28.5 172.833,28.5 172.5,28.5C 172.158,27.6618 171.492,27.3284 170.5,27.5C 170.833,26.8333 171.167,26.1667 171.5,25.5 Z"/></g>
<g><path style="opacity:0.008" fill="#fefffe" d="M 178.5,25.5 C 179.833,26.1667 179.833,26.1667 178.5,25.5 Z"/></g>
<g><path style="opacity:0.01" fill="#fefefe" d="M 38.5,26.5 C 39.1667,26.5 39.8333,26.5 40.5,26.5C 39.3995,27.6049 38.7329,28.9382 38.5,30.5C 37.8333,30.1667 37.1667,29.8333 36.5,29.5C 36.5,29.1667 36.5,28.8333 36.5,28.5C 37.1667,28.5 37.5,28.1667 37.5,27.5C 38.1667,27.5 38.5,27.1667 38.5,26.5 Z"/></g>
<g><path style="opacity:0.013" fill="#fefefe" d="M 163.5,28.5 C 163.842,27.6618 164.508,27.3284 165.5,27.5C 165.842,28.3382 166.508,28.6716 167.5,28.5C 167.167,29.5 166.5,30.1667 165.5,30.5C 165.5,29.8333 165.167,29.5 164.5,29.5C 164.5,28.8333 164.167,28.5 163.5,28.5 Z"/></g>
<g><path style="opacity:0.007" fill="#fefefe" d="M 175.5,27.5 C 175.5,28.1667 175.833,28.5 176.5,28.5C 176.5,29.1667 176.833,29.5 177.5,29.5C 177.5,30.1667 177.833,30.5 178.5,30.5C 178.5,31.1667 178.833,31.5 179.5,31.5C 179.158,32.3382 178.492,32.6716 177.5,32.5C 177.5,31.8333 177.167,31.5 176.5,31.5C 176.5,30.8333 176.167,30.5 175.5,30.5C 175.158,29.6618 174.492,29.3284 173.5,29.5C 173.5,29.1667 173.5,28.8333 173.5,28.5C 174.167,28.1667 174.833,27.8333 175.5,27.5 Z"/></g>
<g><path style="opacity:0.017" fill="#fefffe" d="M 43.5,29.5 C 44.1667,29.5 44.8333,29.5 45.5,29.5C 45.5,29.8333 45.5,30.1667 45.5,30.5C 44.8333,30.5 44.5,30.8333 44.5,31.5C 43.8333,31.5 43.1667,31.5 42.5,31.5C 42.5,31.1667 42.5,30.8333 42.5,30.5C 43.1667,30.5 43.5,30.1667 43.5,29.5 Z"/></g>
<g><path style="opacity:0.016" fill="#fefffe" d="M 32.5,31.5 C 33.8333,32.1667 33.8333,32.1667 32.5,31.5 Z"/></g>
<g><path style="opacity:0.016" fill="#fefffe" d="M 31.5,32.5 C 31.8333,32.5 32.1667,32.5 32.5,32.5C 32.3147,33.1701 31.9813,33.1701 31.5,32.5 Z"/></g>
<g><path style="opacity:0.016" fill="#fefffe" d="M 30.5,33.5 C 30.8333,33.5 31.1667,33.5 31.5,33.5C 31.3147,34.1701 30.9813,34.1701 30.5,33.5 Z"/></g>
<g><path style="opacity:0.016" fill="#fefffe" d="M 29.5,34.5 C 29.8333,34.5 30.1667,34.5 30.5,34.5C 30.3147,35.1701 29.9813,35.1701 29.5,34.5 Z"/></g>
<g><path style="opacity:0.016" fill="#fdfefd" d="M 28.5,35.5 C 28.8333,35.5 29.1667,35.5 29.5,35.5C 29.3147,36.1701 28.9813,36.1701 28.5,35.5 Z"/></g>
<g><path style="opacity:0.016" fill="#fefffe" d="M 27.5,36.5 C 27.8333,36.5 28.1667,36.5 28.5,36.5C 28.3147,37.1701 27.9813,37.1701 27.5,36.5 Z"/></g>
<g><path style="opacity:0.012" fill="#fefffe" d="M 26.5,37.5 C 26.8333,37.5 27.1667,37.5 27.5,37.5C 27.3147,38.1701 26.9813,38.1701 26.5,37.5 Z"/></g>
<g><path style="opacity:0.012" fill="#fefffe" d="M 25.5,38.5 C 25.8333,38.5 26.1667,38.5 26.5,38.5C 26.3147,39.1701 25.9813,39.1701 25.5,38.5 Z"/></g>
<g><path style="opacity:0.012" fill="#fefffe" d="M 191.5,39.5 C 190.833,38.1667 190.833,38.1667 191.5,39.5 Z"/></g>
<g><path style="opacity:0.008" fill="#fefffe" d="M 191.5,39.5 C 192.833,40.1667 192.833,40.1667 191.5,39.5 Z"/></g>
<g><path style="opacity:0.007" fill="#fefefe" d="M 36.5,41.5 C 37.1667,41.5 37.8333,41.5 38.5,41.5C 38.5,41.8333 38.5,42.1667 38.5,42.5C 37.8333,42.5 37.5,42.8333 37.5,43.5C 37.1667,43.5 36.8333,43.5 36.5,43.5C 36.5,42.8333 36.5,42.1667 36.5,41.5 Z"/></g>
<g><path style="opacity:0.016" fill="#fefffe" d="M 21.5,43.5 C 22.8333,44.1667 22.8333,44.1667 21.5,43.5 Z"/></g>
<g><path style="opacity:0.012" fill="#fdfefd" d="M 20.5,44.5 C 20.8333,44.5 21.1667,44.5 21.5,44.5C 21.3147,45.1701 20.9813,45.1701 20.5,44.5 Z"/></g>
<g><path style="opacity:0.008" fill="#fefffe" d="M 14.5,45.5 C 15.8333,46.1667 15.8333,46.1667 14.5,45.5 Z"/></g>
<g><path style="opacity:0.008" fill="#fefffe" d="M 19.5,46.5 C 20.8333,47.1667 20.8333,47.1667 19.5,46.5 Z"/></g>
<g><path style="opacity:0.012" fill="#fdfefd" d="M 23.5,46.5 C 24.8333,47.1667 24.8333,47.1667 23.5,46.5 Z"/></g>
<g><path style="opacity:0.009" fill="#fefffe" d="M 33.5,46.5 C 33.5,47.1667 33.5,47.8333 33.5,48.5C 32.8333,48.5 32.5,48.8333 32.5,49.5C 31.8333,49.5 31.5,49.8333 31.5,50.5C 31.1667,50.5 30.8333,50.5 30.5,50.5C 30.5,49.8333 30.5,49.1667 30.5,48.5C 31.1667,48.5 31.5,48.1667 31.5,47.5C 32.1667,47.1667 32.8333,46.8333 33.5,46.5 Z"/></g>
<g><path style="opacity:0.012" fill="#fefffe" d="M 14.5,48.5 C 13.8333,47.1667 13.8333,47.1667 14.5,48.5 Z"/></g>
<g><path style="opacity:0.016" fill="#fefffe" d="M 18.5,47.5 C 18.8333,47.5 19.1667,47.5 19.5,47.5C 19.3147,48.1701 18.9813,48.1701 18.5,47.5 Z"/></g>
<g><path style="opacity:0.008" fill="#fdfefd" d="M 13.5,48.5 C 12.8333,49.1667 12.8333,49.1667 13.5,48.5 Z"/></g>
<g><path style="opacity:0.006" fill="#fefefe" d="M 17.5,48.5 C 17.8333,48.5 18.1667,48.5 18.5,48.5C 18.6716,49.4916 18.3382,50.1583 17.5,50.5C 17.5,49.8333 17.5,49.1667 17.5,48.5 Z"/></g>
<g><path style="opacity:0.016" fill="#fefffe" d="M 16.5,50.5 C 16.8333,50.5 17.1667,50.5 17.5,50.5C 17.3147,51.1701 16.9813,51.1701 16.5,50.5 Z"/></g>
<g><path style="opacity:0.01" fill="#fefefe" d="M 30.5,50.5 C 30.5,51.1667 30.5,51.8333 30.5,52.5C 29.8333,52.5 29.5,52.8333 29.5,53.5C 28.6618,53.8417 28.3284,54.5084 28.5,55.5C 27.0937,55.9731 26.427,56.9731 26.5,58.5C 25.6618,58.8417 25.3284,59.5084 25.5,60.5C 24.6618,60.8417 24.3284,61.5084 24.5,62.5C 23.6618,62.8417 23.3284,63.5084 23.5,64.5C 22.6618,64.8417 22.3284,65.5084 22.5,66.5C 21.8333,67.1667 21.1667,67.8333 20.5,68.5C 20.5,67.5 20.5,66.5 20.5,65.5C 21.9313,64.2196 22.5979,62.5529 22.5,60.5C 23.3382,60.1583 23.6716,59.4916 23.5,58.5C 24.1667,58.5 24.5,58.1667 24.5,57.5C 25.3382,57.1583 25.6716,56.4916 25.5,55.5C 26.9063,55.0269 27.573,54.0269 27.5,52.5C 28.1667,52.5 28.5,52.1667 28.5,51.5C 29.1667,51.1667 29.8333,50.8333 30.5,50.5 Z"/></g>
<g><path style="opacity:0.012" fill="#fefffe" d="M 198.5,50.5 C 199.833,51.1667 199.833,51.1667 198.5,50.5 Z"/></g>
<g><path style="opacity:0.012" fill="#fefffe" d="M 20.5,51.5 C 21.8333,52.1667 21.8333,52.1667 20.5,51.5 Z"/></g>
<g><path style="opacity:0.008" fill="#fefffe" d="M 15.5,52.5 C 16.8333,53.1667 16.8333,53.1667 15.5,52.5 Z"/></g>
<g><path style="opacity:0.012" fill="#fefffe" d="M 199.5,52.5 C 200.833,53.1667 200.833,53.1667 199.5,52.5 Z"/></g>
<g><path style="opacity:0.008" fill="#fefffe" d="M 9.5,53.5 C 10.8333,54.1667 10.8333,54.1667 9.5,53.5 Z"/></g>
<g><path style="opacity:0.008" fill="#fefffe" d="M 14.5,53.5 C 14.8333,53.5 15.1667,53.5 15.5,53.5C 15.6716,54.4916 15.3382,55.1583 14.5,55.5C 14.5,54.8333 14.5,54.1667 14.5,53.5 Z"/></g>
<g><path style="opacity:0.008" fill="#fefffe" d="M 9.5,56.5 C 8.83333,55.1667 8.83333,55.1667 9.5,56.5 Z"/></g>
<g><path style="opacity:0.012" fill="#fefffe" d="M 13.5,55.5 C 13.8333,55.5 14.1667,55.5 14.5,55.5C 14.3147,56.1701 13.9813,56.1701 13.5,55.5 Z"/></g>
<g><path style="opacity:0.008" fill="#fefefe" d="M 201.5,57.5 C 201.369,56.7611 201.536,56.0944 202,55.5C 202.692,56.4368 202.525,57.1034 201.5,57.5 Z"/></g>
<g><path style="opacity:0.008" fill="#fefffe" d="M 7.5,57.5 C 8.83333,58.1667 8.83333,58.1667 7.5,57.5 Z"/></g>
<g><path style="opacity:0.012" fill="#fefffe" d="M 12.5,57.5 C 13.8333,58.1667 13.8333,58.1667 12.5,57.5 Z"/></g>
<g><path style="opacity:0.012" fill="#fefffe" d="M 18.5,58.5 C 17.8333,57.1667 17.8333,57.1667 18.5,58.5 Z"/></g>
<g><path style="opacity:0.012" fill="#fefffe" d="M 202.5,58.5 C 203.833,59.1667 203.833,59.1667 202.5,58.5 Z"/></g>
<g><path style="opacity:0.008" fill="#fefffe" d="M 6.5,59.5 C 7.83333,60.1667 7.83333,60.1667 6.5,59.5 Z"/></g>
<g><path style="opacity:0.008" fill="#fdfefd" d="M 11.5,59.5 C 12.8333,60.1667 12.8333,60.1667 11.5,59.5 Z"/></g>
<g><path style="opacity:0.004" fill="#fefffe" d="M 6.5,63.5 C 5.47498,63.1034 5.30831,62.4368 6,61.5C 6.46434,62.0944 6.63101,62.7611 6.5,63.5 Z"/></g>
<g><path style="opacity:0.008" fill="#fdfefd" d="M 10.5,61.5 C 11.8333,62.1667 11.8333,62.1667 10.5,61.5 Z"/></g>
<g><path style="opacity:1" fill="#040404" d="M 45.5,61.5 C 64.8362,61.3334 84.1695,61.5 103.5,62C 95.5,70 87.5,78 79.5,86C 70.8397,86.4998 62.1731,86.6664 53.5,86.5C 53.5,88.5 53.5,90.5 53.5,92.5C 63.8387,92.3335 74.172,92.5002 84.5,93C 93.9569,94.303 100.124,99.4697 103,108.5C 103.667,117.167 103.667,125.833 103,134.5C 100.64,142.858 95.1398,147.691 86.5,149C 67.1695,149.5 47.8362,149.667 28.5,149.5C 28.5,141.167 28.5,132.833 28.5,124.5C 45.1667,124.5 61.8333,124.5 78.5,124.5C 78.5,122.5 78.5,120.5 78.5,118.5C 67.8281,118.667 57.1615,118.5 46.5,118C 36.2093,116.043 30.376,109.876 29,99.5C 28.1301,91.103 28.4635,82.7697 30,74.5C 33.2659,67.7209 38.4326,63.3876 45.5,61.5 Z"/></g>
<g><path style="opacity:1" fill="#020202" d="M 107.5,61.5 C 124.837,61.3334 142.17,61.5001 159.5,62C 182.143,66.9731 194.476,80.9731 196.5,104C 195.979,128.187 183.979,143.187 160.5,149C 143.17,149.5 125.837,149.667 108.5,149.5C 108.5,133.167 108.5,116.833 108.5,100.5C 116.833,100.5 125.167,100.5 133.5,100.5C 133.5,108.5 133.5,116.5 133.5,124.5C 141.174,124.666 148.841,124.5 156.5,124C 167.805,120.232 172.639,112.399 171,100.5C 168.5,94 164,89.5 157.5,87C 132.833,86.6667 108.167,86.3333 83.5,86C 91.7024,77.965 99.7024,69.7983 107.5,61.5 Z"/></g>
<g><path style="opacity:0.004" fill="#fdfefd" d="M 9.5,63.5 C 10.8333,64.1667 10.8333,64.1667 9.5,63.5 Z"/></g>
<g><path style="opacity:0.011" fill="#fefefe" d="M 19.5,68.5 C 19.8333,68.5 20.1667,68.5 20.5,68.5C 20.5,69.5 20.5,70.5 20.5,71.5C 19.596,72.209 19.2627,73.209 19.5,74.5C 18.596,75.209 18.2627,76.209 18.5,77.5C 18.1667,77.5 17.8333,77.5 17.5,77.5C 17.5,76.1667 17.5,74.8333 17.5,73.5C 18.404,72.791 18.7373,71.791 18.5,70.5C 19.3382,70.1583 19.6716,69.4916 19.5,68.5 Z"/></g>
<g><path style="opacity:0.008" fill="#fefffe" d="M 209.5,73.5 C 209.369,72.7611 209.536,72.0944 210,71.5C 210.692,72.4368 210.525,73.1034 209.5,73.5 Z"/></g>
<g><path style="opacity:0.008" fill="#fefffe" d="M 11.5,75.5 C 11.1667,75.5 10.8333,75.5 10.5,75.5C 10.8333,72.8333 11.1667,72.8333 11.5,75.5 Z"/></g>
<g><path style="opacity:0.008" fill="#fefefe" d="M 211.5,76.5 C 211.167,76.5 210.833,76.5 210.5,76.5C 210.833,73.8333 211.167,73.8333 211.5,76.5 Z"/></g>
<g><path style="opacity:0.008" fill="#fefefe" d="M 10.5,75.5 C 10.631,76.2389 10.4643,76.9056 10,77.5C 9.30831,76.5632 9.47498,75.8966 10.5,75.5 Z"/></g>
<g><path style="opacity:0.008" fill="#fefffe" d="M 211.5,76.5 C 212.525,76.8966 212.692,77.5632 212,78.5C 211.536,77.9056 211.369,77.2389 211.5,76.5 Z"/></g>
<g><path style="opacity:0.01" fill="#fefefe" d="M 212.5,81.5 C 212.369,80.7611 212.536,80.0944 213,79.5C 213.692,80.4368 213.525,81.1034 212.5,81.5 Z"/></g>
<g><path style="opacity:0.01" fill="#fefffe" d="M 213.5,82.5 C 214.525,82.8966 214.692,83.5632 214,84.5C 213.536,83.9056 213.369,83.2389 213.5,82.5 Z"/></g>
<g><path style="opacity:0.008" fill="#fefefe" d="M 7.5,88.5 C 6.42654,87.7494 6.25988,86.7494 7,85.5C 7.48278,86.448 7.64945,87.448 7.5,88.5 Z"/></g>
<g><path style="opacity:0.008" fill="#fefffe" d="M 215.5,85.5 C 215.5,86.5 215.5,87.5 215.5,88.5C 214.167,87.5 214.167,86.5 215.5,85.5 Z"/></g>
<g><path style="opacity:0.009" fill="#fefefe" d="M 5.5,89.5 C 6.57346,90.2506 6.74012,91.2506 6,92.5C 5.51722,91.552 5.35055,90.552 5.5,89.5 Z"/></g>
<g><path style="opacity:0.009" fill="#fefefe" d="M 4.5,94.5 C 5.61295,95.9464 5.77961,97.6131 5,99.5C 4.50649,97.8659 4.33982,96.1992 4.5,94.5 Z"/></g>
<g><path style="opacity:0.394" fill="#fefefe" d="M -0.5,96.5 C 0.376442,96.3691 1.04311,96.7025 1.5,97.5C 1.39029,99.0982 1.05696,100.765 0.5,102.5C 1.11359,106.967 1.78026,111.3 2.5,115.5C 2.20528,117.735 2.53862,119.735 3.5,121.5C 2.98492,126.086 1.98492,126.419 0.5,122.5C 0.784479,120.585 0.451145,118.919 -0.5,117.5C -0.5,110.5 -0.5,103.5 -0.5,96.5 Z"/></g>
<g><path style="opacity:0.008" fill="#fefefe" d="M 3.5,121.5 C 3.79472,119.265 3.46138,117.265 2.5,115.5C 2.42456,111.103 2.92456,106.77 4,102.5C 4.5204,110.193 4.85373,117.86 5,125.5C 4.78997,123.942 4.28997,122.609 3.5,121.5 Z"/></g>
<g><path style="opacity:0.012" fill="#fefefe" d="M 9.5,111.5 C 10.3222,114.665 10.9889,117.998 11.5,121.5C 11.1667,122.167 10.8333,122.833 10.5,123.5C 9.50909,119.555 9.17575,115.555 9.5,111.5 Z"/></g>
<g><path style="opacity:0.004" fill="#fefffe" d="M -0.5,122.5 C -0.166667,122.5 0.166667,122.5 0.5,122.5C 0.67158,123.492 0.338246,124.158 -0.5,124.5C -0.5,123.833 -0.5,123.167 -0.5,122.5 Z"/></g>
<g><path style="opacity:0.01" fill="#fefefe" d="M 11.5,124.5 C 12.0431,124.56 12.3764,124.893 12.5,125.5C 11.9017,126.795 11.4017,128.128 11,129.5C 10.3603,127.735 10.5269,126.068 11.5,124.5 Z"/></g>
<g><path style="opacity:0.008" fill="#fefefe" d="M 6.5,126.5 C 6.65668,127.873 6.49001,129.207 6,130.5C 5.23502,128.934 5.40168,127.601 6.5,126.5 Z"/></g>
<g><path style="opacity:0.01" fill="#fefefe" d="M 213.5,126.5 C 214.598,127.601 214.765,128.934 214,130.5C 213.51,129.207 213.343,127.873 213.5,126.5 Z"/></g>
<g><path style="opacity:0.008" fill="#fefffe" d="M 7.5,131.5 C 7.64945,132.552 7.48278,133.552 7,134.5C 6.25988,133.251 6.42654,132.251 7.5,131.5 Z"/></g>
<g><path style="opacity:0.009" fill="#fefefe" d="M 212.5,132.5 C 213.573,133.251 213.74,134.251 213,135.5C 212.517,134.552 212.351,133.552 212.5,132.5 Z"/></g>
<g><path style="opacity:0.008" fill="#fefffe" d="M 8.5,135.5 C 8.64945,136.552 8.48278,137.552 8,138.5C 7.25988,137.251 7.42654,136.251 8.5,135.5 Z"/></g>
<g><path style="opacity:0.009" fill="#fefefe" d="M 211.5,139.5 C 211.351,138.448 211.517,137.448 212,136.5C 212.74,137.749 212.573,138.749 211.5,139.5 Z"/></g>
<g><path style="opacity:0.004" fill="#fefffe" d="M 7.5,140.5 C 6.83333,139.167 6.83333,139.167 7.5,140.5 Z"/></g>
<g><path style="opacity:0.007" fill="#fefffe" d="M 210.5,139.5 C 210.833,139.5 211.167,139.5 211.5,139.5C 211.167,143.5 210.833,143.5 210.5,139.5 Z"/></g>
<g><path style="opacity:0.008" fill="#fdfefd" d="M 5.5,141.5 C 6.83333,142.167 6.83333,142.167 5.5,141.5 Z"/></g>
<g><path style="opacity:0.008" fill="#fefefe" d="M 209.5,145.5 C 209.369,144.761 209.536,144.094 210,143.5C 210.692,144.437 210.525,145.103 209.5,145.5 Z"/></g>
<g><path style="opacity:0.01" fill="#fefefe" d="M 208.5,145.5 C 208.833,145.5 209.167,145.5 209.5,145.5C 209.167,148.167 208.833,148.167 208.5,145.5 Z"/></g>
<g><path style="opacity:0.008" fill="#fefefe" d="M 207.5,148.5 C 208.833,149.167 208.833,149.833 207.5,150.5C 207.5,149.833 207.5,149.167 207.5,148.5 Z"/></g>
<g><path style="opacity:0.01" fill="#fefffe" d="M 206.5,150.5 C 206.833,150.5 207.167,150.5 207.5,150.5C 207.672,151.492 207.338,152.158 206.5,152.5C 206.5,151.833 206.5,151.167 206.5,150.5 Z"/></g>
<g><path style="opacity:0.008" fill="#fefefe" d="M 205.5,152.5 C 205.833,152.5 206.167,152.5 206.5,152.5C 206.672,153.492 206.338,154.158 205.5,154.5C 205.5,153.833 205.5,153.167 205.5,152.5 Z"/></g>
<g><path style="opacity:0.012" fill="#fefffe" d="M 12.5,153.5 C 11.8333,154.167 11.8333,154.167 12.5,153.5 Z"/></g>
<g><path style="opacity:0.008" fill="#fdfefd" d="M 204.5,154.5 C 204.833,154.5 205.167,154.5 205.5,154.5C 205.672,155.492 205.338,156.158 204.5,156.5C 204.5,155.833 204.5,155.167 204.5,154.5 Z"/></g>
<g><path style="opacity:0.012" fill="#fefffe" d="M 12.5,155.5 C 13.8333,156.167 13.8333,156.167 12.5,155.5 Z"/></g>
<g><path style="opacity:0.008" fill="#fefffe" d="M 203.5,156.5 C 203.833,156.5 204.167,156.5 204.5,156.5C 204.672,157.492 204.338,158.158 203.5,158.5C 203.5,157.833 203.5,157.167 203.5,156.5 Z"/></g>
<g><path style="opacity:0.016" fill="#fefffe" d="M 202.5,158.5 C 202.833,158.5 203.167,158.5 203.5,158.5C 203.315,159.17 202.981,159.17 202.5,158.5 Z"/></g>
<g><path style="opacity:0.012" fill="#fefffe" d="M 201.5,160.5 C 202.833,161.167 202.833,161.167 201.5,160.5 Z"/></g>
<g><path style="opacity:0.006" fill="#fefffe" d="M 200.5,161.5 C 200.833,161.5 201.167,161.5 201.5,161.5C 201.672,162.492 201.338,163.158 200.5,163.5C 200.5,162.833 200.5,162.167 200.5,161.5 Z"/></g>
<g><path style="opacity:0.016" fill="#fefffe" d="M 199.5,163.5 C 199.833,163.5 200.167,163.5 200.5,163.5C 200.315,164.17 199.981,164.17 199.5,163.5 Z"/></g>
<g><path style="opacity:0.006" fill="#fefffe" d="M 198.5,164.5 C 198.833,164.5 199.167,164.5 199.5,164.5C 199.672,165.492 199.338,166.158 198.5,166.5C 198.5,165.833 198.5,165.167 198.5,164.5 Z"/></g>
<g><path style="opacity:0.016" fill="#fefffe" d="M 197.5,166.5 C 197.833,166.5 198.167,166.5 198.5,166.5C 198.315,167.17 197.981,167.17 197.5,166.5 Z"/></g>
<g><path style="opacity:0.008" fill="#fefffe" d="M 196.5,167.5 C 196.833,167.5 197.167,167.5 197.5,167.5C 197.672,168.492 197.338,169.158 196.5,169.5C 196.5,168.833 196.5,168.167 196.5,167.5 Z"/></g>
<g><path style="opacity:0.008" fill="#fefffe" d="M 195.5,169.5 C 195.833,169.5 196.167,169.5 196.5,169.5C 196.315,170.17 195.981,170.17 195.5,169.5 Z"/></g>
<g><path style="opacity:0.016" fill="#fdfefd" d="M 194.5,170.5 C 194.833,170.5 195.167,170.5 195.5,170.5C 195.315,171.17 194.981,171.17 194.5,170.5 Z"/></g>
<g><path style="opacity:0.016" fill="#fefffe" d="M 193.5,171.5 C 193.833,171.5 194.167,171.5 194.5,171.5C 194.315,172.17 193.981,172.17 193.5,171.5 Z"/></g>
<g><path style="opacity:0.008" fill="#fefffe" d="M 168.5,176.5 C 169.167,176.5 169.833,176.5 170.5,176.5C 169.5,178.167 168.167,179.5 166.5,180.5C 166.557,179.391 166.89,178.391 167.5,177.5C 168.167,177.5 168.5,177.167 168.5,176.5 Z"/></g>
<g><path style="opacity:0.004" fill="#fefefe" d="M 183.5,176.5 C 183.5,177.167 183.5,177.833 183.5,178.5C 182.833,178.5 182.5,178.833 182.5,179.5C 181.833,179.5 181.167,179.5 180.5,179.5C 181.167,178.167 182.167,177.167 183.5,176.5 Z"/></g>
<g><path style="opacity:0.012" fill="#fefffe" d="M 188.5,177.5 C 189.833,178.167 189.833,178.167 188.5,177.5 Z"/></g>
<g><path style="opacity:0.016" fill="#fefffe" d="M 34.5,178.5 C 33.8333,179.167 33.8333,179.167 34.5,178.5 Z"/></g>
<g><path style="opacity:0.008" fill="#fefefe" d="M 43.5,178.5 C 44.8333,179.167 45.8333,180.167 46.5,181.5C 45.8333,181.5 45.1667,181.5 44.5,181.5C 44.1583,180.662 43.4916,180.328 42.5,180.5C 42.8333,179.833 43.1667,179.167 43.5,178.5 Z"/></g>
<g><path style="opacity:0.016" fill="#fefffe" d="M 187.5,178.5 C 187.833,178.5 188.167,178.5 188.5,178.5C 188.315,179.17 187.981,179.17 187.5,178.5 Z"/></g>
<g><path style="opacity:0.016" fill="#fefffe" d="M 186.5,179.5 C 186.833,179.5 187.167,179.5 187.5,179.5C 187.315,180.17 186.981,180.17 186.5,179.5 Z"/></g>
<g><path style="opacity:0.016" fill="#fefffe" d="M 185.5,180.5 C 185.833,180.5 186.167,180.5 186.5,180.5C 186.315,181.17 185.981,181.17 185.5,180.5 Z"/></g>
<g><path style="opacity:0.016" fill="#fefffe" d="M 184.5,181.5 C 184.833,181.5 185.167,181.5 185.5,181.5C 185.315,182.17 184.981,182.17 184.5,181.5 Z"/></g>
<g><path style="opacity:0.004" fill="#fefffe" d="M 35.5,182.5 C 36.8333,183.167 36.8333,183.167 35.5,182.5 Z"/></g>
<g><path style="opacity:0.012" fill="#fefffe" d="M 183.5,182.5 C 183.833,182.5 184.167,182.5 184.5,182.5C 184.315,183.17 183.981,183.17 183.5,182.5 Z"/></g>
<g><path style="opacity:0.016" fill="#fefffe" d="M 178.5,186.5 C 179.833,187.167 179.833,187.167 178.5,186.5 Z"/></g>
<g><path style="opacity:0.016" fill="#fefffe" d="M 46.5,190.5 C 46.5,190.833 46.5,191.167 46.5,191.5C 45.8299,191.019 45.8299,190.685 46.5,190.5 Z"/></g>
<g><path style="opacity:0.016" fill="#fefffe" d="M 173.5,190.5 C 174.833,191.167 174.833,191.167 173.5,190.5 Z"/></g>
<g><path style="opacity:0.008" fill="#fefffe" d="M 46.5,191.5 C 47.8333,192.167 47.8333,192.167 46.5,191.5 Z"/></g>
<g><path style="opacity:0.014" fill="#fefefe" d="M 69.5,191.5 C 70.1667,191.5 70.8333,191.5 71.5,191.5C 72.209,192.404 73.209,192.737 74.5,192.5C 73.4324,193.434 72.099,193.768 70.5,193.5C 70.1667,192.833 69.8333,192.167 69.5,191.5 Z"/></g>
<g><path style="opacity:0.006" fill="#fefffe" d="M 171.5,192.5 C 171.5,192.167 171.5,191.833 171.5,191.5C 172.167,191.5 172.833,191.5 173.5,191.5C 173.158,192.338 172.492,192.672 171.5,192.5 Z"/></g>
<g><path style="opacity:0.009" fill="#fefefe" d="M 158.5,193.5 C 158.5,193.167 158.5,192.833 158.5,192.5C 159.167,192.5 159.833,192.5 160.5,192.5C 160.591,194.698 159.925,195.031 158.5,193.5 Z"/></g>
<g><path style="opacity:0.016" fill="#fefffe" d="M 170.5,192.5 C 170.833,192.5 171.167,192.5 171.5,192.5C 171.315,193.17 170.981,193.17 170.5,192.5 Z"/></g>
<g><path style="opacity:0.012" fill="#fefefe" d="M 157.5,193.5 C 157.833,193.5 158.167,193.5 158.5,193.5C 158.218,194.778 157.551,195.778 156.5,196.5C 155.508,196.328 154.842,196.662 154.5,197.5C 153.508,197.672 152.842,197.338 152.5,196.5C 153.167,196.5 153.5,196.167 153.5,195.5C 154.492,195.672 155.158,195.338 155.5,194.5C 156.492,194.672 157.158,194.338 157.5,193.5 Z"/></g>
<g><path style="opacity:0.008" fill="#fefffe" d="M 170.5,193.5 C 169.833,194.167 169.833,194.167 170.5,193.5 Z"/></g>
<g><path style="opacity:0.012" fill="#fefffe" d="M 52.5,194.5 C 51.8333,195.167 51.8333,195.167 52.5,194.5 Z"/></g>
<g><path style="opacity:0.012" fill="#fefffe" d="M 167.5,194.5 C 168.833,195.167 168.833,195.167 167.5,194.5 Z"/></g>
<g><path style="opacity:0.008" fill="#fefffe" d="M 63.5,195.5 C 63.1034,196.525 62.4368,196.692 61.5,196C 62.0944,195.536 62.7611,195.369 63.5,195.5 Z"/></g>
<g><path style="opacity:0.008" fill="#fefffe" d="M 165.5,196.5 C 165.5,196.167 165.5,195.833 165.5,195.5C 166.167,195.5 166.833,195.5 167.5,195.5C 167.158,196.338 166.492,196.672 165.5,196.5 Z"/></g>
<g><path style="opacity:0.006" fill="#fefffe" d="M 56.5,196.5 C 56.5,196.833 56.5,197.167 56.5,197.5C 53.8333,197.167 53.8333,196.833 56.5,196.5 Z"/></g>
<g><path style="opacity:0.01" fill="#fefffe" d="M 66.5,196.5 C 66.1034,197.525 65.4368,197.692 64.5,197C 65.0944,196.536 65.7611,196.369 66.5,196.5 Z"/></g>
<g><path style="opacity:0.012" fill="#fefffe" d="M 165.5,196.5 C 164.833,197.167 164.833,197.167 165.5,196.5 Z"/></g>
<g><path style="opacity:0.004" fill="#fefffe" d="M 56.5,197.5 C 57.2389,197.369 57.9056,197.536 58.5,198C 57.5632,198.692 56.8966,198.525 56.5,197.5 Z"/></g>
<g><path style="opacity:0.012" fill="#fdfefd" d="M 162.5,197.5 C 163.833,198.167 163.833,198.167 162.5,197.5 Z"/></g>
<g><path style="opacity:0.008" fill="#fefffe" d="M 160.5,199.5 C 160.5,199.167 160.5,198.833 160.5,198.5C 161.167,198.5 161.833,198.5 162.5,198.5C 162.158,199.338 161.492,199.672 160.5,199.5 Z"/></g>
<g><path style="opacity:0.008" fill="#fefefe" d="M 73.5,199.5 C 73.1034,200.525 72.4368,200.692 71.5,200C 72.0944,199.536 72.7611,199.369 73.5,199.5 Z"/></g>
<g><path style="opacity:0.008" fill="#fefffe" d="M 158.5,200.5 C 158.5,200.167 158.5,199.833 158.5,199.5C 159.167,199.5 159.833,199.5 160.5,199.5C 160.158,200.338 159.492,200.672 158.5,200.5 Z"/></g>
<g><path style="opacity:0.01" fill="#fefffe" d="M 156.5,201.5 C 156.5,201.167 156.5,200.833 156.5,200.5C 157.167,200.5 157.833,200.5 158.5,200.5C 158.158,201.338 157.492,201.672 156.5,201.5 Z"/></g>
<g><path style="opacity:0.014" fill="#fefefe" d="M 93.5,202.5 C 97.6463,201.353 101.98,201.186 106.5,202C 105.127,202.875 103.627,203.375 102,203.5C 99.2077,202.784 96.3743,202.451 93.5,202.5 Z"/></g>
<g><path style="opacity:0.008" fill="#fefffe" d="M 154.5,202.5 C 154.5,202.167 154.5,201.833 154.5,201.5C 155.167,201.5 155.833,201.5 156.5,201.5C 156.158,202.338 155.492,202.672 154.5,202.5 Z"/></g>
<g><path style="opacity:0.008" fill="#fefffe" d="M 154.5,202.5 C 154.103,203.525 153.437,203.692 152.5,203C 153.094,202.536 153.761,202.369 154.5,202.5 Z"/></g>
<g><path style="opacity:0.01" fill="#fefffe" d="M 149.5,204.5 C 149.5,204.167 149.5,203.833 149.5,203.5C 152.167,203.833 152.167,204.167 149.5,204.5 Z"/></g>
<g><path style="opacity:0.006" fill="#fefffe" d="M 75.5,204.5 C 75.1034,205.525 74.4368,205.692 73.5,205C 74.0944,204.536 74.7611,204.369 75.5,204.5 Z"/></g>
<g><path style="opacity:0.007" fill="#fefefe" d="M 146.5,205.5 C 146.5,205.167 146.5,204.833 146.5,204.5C 147.5,204.5 148.5,204.5 149.5,204.5C 148.791,205.404 147.791,205.737 146.5,205.5 Z"/></g>
<g><path style="opacity:0.008" fill="#fefffe" d="M 78.5,205.5 C 78.1034,206.525 77.4368,206.692 76.5,206C 77.0944,205.536 77.7611,205.369 78.5,205.5 Z"/></g>
<g><path style="opacity:0.009" fill="#fefefe" d="M 143.5,205.5 C 144.5,205.5 145.5,205.5 146.5,205.5C 145.5,206.833 144.5,206.833 143.5,205.5 Z"/></g>
<g><path style="opacity:0.01" fill="#fefffe" d="M 79.5,207.5 C 79.8966,206.475 80.5632,206.308 81.5,207C 80.9056,207.464 80.2389,207.631 79.5,207.5 Z"/></g>
<g><path style="opacity:0.01" fill="#fefffe" d="M 140.5,207.5 C 140.897,206.475 141.563,206.308 142.5,207C 141.906,207.464 141.239,207.631 140.5,207.5 Z"/></g>
<g><path style="opacity:0.009" fill="#fefefe" d="M 82.5,208.5 C 83.5,207.167 84.5,207.167 85.5,208.5C 84.5,208.5 83.5,208.5 82.5,208.5 Z"/></g>
<g><path style="opacity:0.009" fill="#fefffe" d="M 136.5,208.5 C 137.5,207.167 138.5,207.167 139.5,208.5C 138.5,208.5 137.5,208.5 136.5,208.5 Z"/></g>
</svg>
